<!--?xml version="1.0" standalone="no"?-->
              <svg id="sw-js-blob-svg" viewBox="0 0 100 100" xmlns="http://www.w3.org/2000/svg" version="1.1">
                    <defs> 
                        <linearGradient id="sw-gradient" x1="0" x2="1" y1="1" y2="0">
                            <stop id="stop1" stop-color="rgba(255, 0, 0, 1)" offset="0%"></stop>
                            <stop id="stop2" stop-color="rgba(255, 0, 0, 1)" offset="100%"></stop>
                        </linearGradient>
                    </defs>
                <path fill="url(#sw-gradient)" d="M18.6,-20.4C25.7,-16.2,34.2,-11.8,34.7,-6.5C35.2,-1.1,27.7,5.2,22.9,12.9C18.1,20.5,16,29.4,10.2,34.1C4.5,38.8,-5,39.3,-14.2,36.8C-23.3,34.4,-32.2,29,-33.6,21.7C-35.1,14.4,-29.2,5.1,-27,-4.3C-24.8,-13.7,-26.2,-23.3,-22.3,-28C-18.4,-32.8,-9.2,-32.8,-1.7,-30.7C5.7,-28.6,11.5,-24.6,18.6,-20.4Z" width="100%" height="100%" transform="translate(50 50)" stroke-width="0" style="transition: all 0.3s ease 0s;"></path>
              </svg>